<svg xmlns="http://www.w3.org/2000/svg" xmlns:xlink="http://www.w3.org/1999/xlink" version="1.1" x="0px" y="0px" viewBox="0 0 100 125" enable-background="new 0 0 100 100" xml:space="preserve"><g><path fill="#444" d="M58.1,39.2V78c0,0.6,0.4,1,1,1s1-0.4,1-1V39.2c0-0.6-0.4-1-1-1S58.1,38.7,58.1,39.2z"/><circle fill="#444" cx="59.1" cy="82.9" r="2.2"/><path fill="#444" d="M60.9,28.7c-1.6-1.2-2.6-3.1-2.6-5.1V23c0.9-0.2,1.7-1,1.7-2V11c0-1.1-0.9-2-2-2H42c-1.1,0-2,0.9-2,2v10c0,1,0.7,1.8,1.7,2   v0.6c0,2-1,3.9-2.6,5.1c-2.7,1.9-5.9,5.5-5.9,11.7V82c0,8.2,1.6,9,8.7,9h16.3c3.2,0,5.5,0,7-1.5c1.5-1.5,1.7-4,1.7-7.5V40.5   C66.8,34.2,63.6,30.6,60.9,28.7z M48,13h1v6h-1V13z M51,19v-6h1v6H51z M56,19h-2v-6h2V19z M44,13h2v6h-2V13z M62.8,82   c0,1.1,0,4.2-0.5,4.6C62,87,59.7,87,58.1,87H42.8h-1c-1.5,0-3.9,0-4.2-0.4c-0.5-0.5-0.5-3.5-0.5-4.6V40.5c0-3.6,1.4-6.5,4.2-8.5   c2.6-1.9,4.2-4.9,4.3-8.1h8.7c0.1,3.2,1.7,6.2,4.3,8.1c2.8,2,4.2,4.8,4.2,8.5V82z"/></g></svg>