<svg xmlns="http://www.w3.org/2000/svg" xmlns:xlink="http://www.w3.org/1999/xlink" version="1.1" x="0px" y="0px" viewBox="0 0 100 125" enable-background="new 0 0 100 100" xml:space="preserve"><path fill="#444" d="M72.8,39H69V28c0-1.1-0.6-2-1.8-2H32.8c-1.1,0-1.8,0.9-1.8,2v11h-3.8c-2.6,0-4.3,2.1-4.3,4.6v16.6  c0,7,5.9,12.8,13.7,12.8h26.6C71.1,73,77,67.2,77,60.2V43.6C77,41.1,75.3,39,72.8,39z M35,30h30v9H35V30z M73,60.2  c0,4.8-4.1,8.8-9.7,8.8H36.7c-5.5,0-9.7-4-9.7-8.8V43.6c0-0.3-0.1-0.6,0.3-0.6h45.5c0.3,0,0.3,0.3,0.3,0.6v16.6H73z"/><path fill="#444" d="M69,57.5c0.6,0,1-0.4,1-1v-9.3c0-0.6-0.4-1-1-1s-1,0.4-1,1v9.3C68,57.1,68.4,57.5,69,57.5z"/><circle fill="#444" cx="69.4" cy="60.8" r="2.2"/></svg>