<svg xmlns="http://www.w3.org/2000/svg" xmlns:xlink="http://www.w3.org/1999/xlink" version="1.1" x="0px" y="0px" viewBox="0 0 100 125" enable-background="new 0 0 100 100" xml:space="preserve"><path fill="#444" d="M64.9,59.8c0.6,0,1-0.4,1-1v-9.6c0-0.6-0.4-1-1-1s-1,0.4-1,1v9.6C63.9,59.4,64.4,59.8,64.9,59.8z"/><circle fill="#444" cx="64.9" cy="63.8" r="2.2"/><path d="M34.8,73h30.5c4.7,0,8.5-3.4,8.5-7.6V48.9c0-1.5-0.5-2.8-1.3-4c0.8-0.3,1.3-1,1.3-1.9V29c0-1.1-0.9-2-2-2H28.3  c-1.1,0-2,0.9-2,2v14c0,0.9,0.5,1.6,1.3,1.9c-0.8,1.2-1.3,2.6-1.3,4v16.5C26.3,69.6,30.1,73,34.8,73z M69.8,65.4  c0,2.2-2.4,3.6-4.5,3.6H34.8c-2.1,0-4.5-1.5-4.5-3.6V48.9c0-2,2.1-3.9,4.5-3.9h30.5c2.4,0,4.5,1.9,4.5,3.9V65.4z M30.3,31h39.5v10  h-4.5H34.8h-4.5V31z"/></svg>