<svg xmlns="http://www.w3.org/2000/svg" xmlns:xlink="http://www.w3.org/1999/xlink" version="1.1" x="0px" y="0px" viewBox="0 0 100 125" enable-background="new 0 0 100 100" xml:space="preserve"><g><path d="M70,12.7c-0.4-0.4-0.9-0.7-1.5-0.7h-37c-0.6,0-1.1,0.2-1.5,0.7c-0.4,0.4-0.6,1-0.5,1.5l6,61.1c0.1,1,1,1.8,2,1.8h0.3V89   c0,1.1,0.9,2,2,2h20.5c1.1,0,2-0.9,2-2V77.1h0.3c1,0,1.9-0.8,2-1.8l6-61.1C70.5,13.6,70.4,13.1,70,12.7z M66.1,18L66.1,18L66,16   h0.3L66.1,18z M36,16h1v2h-1V16z M39,16h1v2h-1V16z M42,16h1v2h-1V16z M45,16h1v2h-1V16z M48,16h1v2h-1V16z M51,16h1v2h-1V16z    M54,16h1v2h-1V16z M57,16h1v2h-1V16z M60,16h1v2h-1V16z M63,16h1v2h-1V16z M34,16v2h-0.1l-0.2-2H34z M58.3,87H41.8v-9.9h16.5V87z    M60.7,73.1h-0.4H39.8h-0.4L34.1,20h31.8L60.7,73.1z"/><path d="M60.8,33.3c-0.6,0-1,0.4-1.1,0.9L56.9,64c-0.1,0.5,0.4,1,0.9,1.1c0,0,0.1,0,0.1,0c0.5,0,0.9-0.4,1-0.9l2.8-29.8   C61.8,33.9,61.4,33.4,60.8,33.3z"/><circle cx="57.3" cy="68.8" r="2.2"/></g></svg>