<svg xmlns="http://www.w3.org/2000/svg" xmlns:xlink="http://www.w3.org/1999/xlink" version="1.1" x="0px" y="0px" viewBox="0 0 100 125" style="enable-background:new 0 0 100 100;" xml:space="preserve">
<path fill="#f9f9f9" d="M29.111,38.258c7.835,0,14.209-6.375,14.209-14.21S36.946,9.839,29.111,9.839s-14.209,6.374-14.209,14.209  S21.276,38.258,29.111,38.258z M29.111,11.839c6.732,0,12.209,5.477,12.209,12.209s-5.477,12.21-12.209,12.21  s-12.209-5.478-12.209-12.21S22.378,11.839,29.111,11.839z"/><path fill="#f9f9f9" d="M19.203,66.48c5.094,0,9.238-4.145,9.238-9.238s-4.144-9.238-9.238-9.238s-9.238,4.145-9.238,9.238  S14.108,66.48,19.203,66.48z M19.203,50.004c3.991,0,7.238,3.247,7.238,7.238s-3.247,7.238-7.238,7.238s-7.238-3.247-7.238-7.238  S15.211,50.004,19.203,50.004z"/><path fill="#f9f9f9" d="M16.167,58.242c0.552,0,1-0.447,1-1c0-1.122,0.913-2.035,2.035-2.035c0.552,0,1-0.447,1-1s-0.448-1-1-1  c-2.225,0-4.035,1.811-4.035,4.035C15.167,57.795,15.615,58.242,16.167,58.242z"/><path fill="#f9f9f9" d="M21.9,23.328c0.552,0,1-0.447,1-1c0-2.504,2.037-4.541,4.541-4.541c0.552,0,1-0.447,1-1s-0.448-1-1-1  c-3.606,0-6.541,2.935-6.541,6.541C20.9,22.881,21.348,23.328,21.9,23.328z"/><path fill="#f9f9f9" d="M75.645,85.126c7.835,0,14.209-6.374,14.209-14.209c0-6.997-5.089-12.816-11.757-13.983c0.418-1.571,0.643-3.19,0.643-4.829  c0-10.328-8.402-18.73-18.73-18.73s-18.73,8.402-18.73,18.73c0,10.327,8.402,18.729,18.73,18.729c0.477,0,0.956-0.036,1.433-0.072  c-0.001,0.052-0.008,0.103-0.008,0.155C61.436,78.752,67.81,85.126,75.645,85.126z M87.854,70.917  c0,6.732-5.477,12.209-12.209,12.209s-12.209-5.477-12.209-12.209s5.477-12.21,12.209-12.21S87.854,64.185,87.854,70.917z   M60.01,68.834c-9.225,0-16.73-7.505-16.73-16.729c0-9.226,7.505-16.73,16.73-16.73s16.73,7.505,16.73,16.73  c0,1.574-0.227,3.126-0.657,4.625c-0.147-0.005-0.29-0.022-0.438-0.022c-7.097,0-12.979,5.237-14.027,12.045  C61.085,68.803,60.546,68.834,60.01,68.834z"/><path fill="#f9f9f9" d="M73.975,62.656c-3.606,0-6.541,2.934-6.541,6.54c0,0.553,0.448,1,1,1s1-0.447,1-1c0-2.503,2.037-4.54,4.541-4.54  c0.552,0,1-0.447,1-1S74.527,62.656,73.975,62.656z"/><path fill="#f9f9f9" d="M60.01,39.005c-6.782,0-12.299,5.517-12.299,12.298c0,0.553,0.448,1,1,1s1-0.447,1-1c0-5.679,4.62-10.298,10.299-10.298  c0.552,0,1-0.447,1-1S60.562,39.005,60.01,39.005z"/><path fill="#f9f9f9" d="M25.697,76.221c0,0.365,0.199,0.702,0.52,0.877l3.216,1.759c3.042,1.664,5.529,4.15,7.192,7.192l1.759,3.216  c0.176,0.321,0.512,0.521,0.877,0.521c0.366,0,0.702-0.199,0.877-0.521l1.759-3.216c1.663-3.042,4.15-5.528,7.192-7.192l3.216-1.759  c0.32-0.175,0.52-0.512,0.52-0.877s-0.2-0.702-0.52-0.877l-3.216-1.759c-3.042-1.664-5.529-4.15-7.192-7.192l-1.759-3.216  c-0.175-0.321-0.512-0.521-0.877-0.521s-0.702,0.199-0.877,0.521l-1.759,3.216c-1.663,3.042-4.15,5.528-7.192,7.192l-3.216,1.759  C25.896,75.519,25.697,75.855,25.697,76.221z M30.393,75.339c3.378-1.847,6.14-4.609,7.987-7.987l0.882-1.611l0.881,1.611  c1.847,3.378,4.609,6.141,7.987,7.987l1.612,0.882l-1.612,0.882c-3.378,1.847-6.14,4.609-7.987,7.987l-0.881,1.611L38.38,85.09  c-1.847-3.378-4.609-6.141-7.987-7.987l-1.612-0.882L30.393,75.339z"/><path fill="#f9f9f9" d="M61.459,19.76c-1.229-0.673-2.234-1.678-2.906-2.906l-0.766-1.4c-0.352-0.644-1.405-0.644-1.755,0l-0.766,1.4  c-0.672,1.229-1.677,2.233-2.906,2.906l-1.4,0.767c-0.321,0.175-0.52,0.512-0.52,0.877c0,0.366,0.2,0.702,0.521,0.877l1.4,0.766  c1.229,0.673,2.234,1.678,2.906,2.906l0.766,1.4c0.175,0.321,0.512,0.521,0.877,0.521c0.365,0,0.702-0.199,0.877-0.521l0.766-1.4  c0.672-1.229,1.677-2.233,2.906-2.906l1.4-0.766c0.321-0.175,0.521-0.511,0.521-0.877c0-0.365-0.199-0.702-0.52-0.877L61.459,19.76z   M56.91,24.795c-0.816-1.41-1.982-2.576-3.392-3.393c1.41-0.815,2.576-1.981,3.392-3.392c0.816,1.41,1.982,2.576,3.392,3.393  C58.892,22.219,57.726,23.385,56.91,24.795z"/><path fill="#f9f9f9" d="M10.645,84.143l1.4,0.767c1.229,0.673,2.234,1.678,2.906,2.906l0.766,1.4c0.175,0.321,0.512,0.521,0.877,0.521  c0.365,0,0.702-0.199,0.877-0.521l0.766-1.4c0.672-1.229,1.677-2.233,2.907-2.906l1.4-0.767c0.32-0.176,0.52-0.512,0.52-0.877  s-0.2-0.702-0.52-0.877l-1.4-0.766c-1.229-0.673-2.234-1.678-2.906-2.906l-0.766-1.4c-0.352-0.644-1.405-0.643-1.755,0l-0.766,1.4  c-0.672,1.229-1.677,2.233-2.906,2.906l-1.4,0.766c-0.321,0.175-0.521,0.511-0.521,0.877C10.125,83.631,10.324,83.967,10.645,84.143  z M16.595,79.874c0.816,1.41,1.982,2.576,3.392,3.392c-1.41,0.816-2.576,1.982-3.392,3.393c-0.816-1.41-1.982-2.576-3.392-3.393  C14.613,82.45,15.779,81.284,16.595,79.874z"/><path fill="#f9f9f9" d="M89.334,19.118l-2.221-1.215c-2.048-1.12-3.723-2.796-4.844-4.844l-1.215-2.222c-0.352-0.644-1.405-0.643-1.755,0  l-1.215,2.222c-1.121,2.048-2.795,3.724-4.844,4.844l-2.221,1.215c-0.321,0.175-0.52,0.512-0.52,0.877s0.199,0.702,0.52,0.877  l2.221,1.215c2.048,1.12,3.723,2.796,4.844,4.844l1.215,2.222c0.175,0.321,0.512,0.521,0.877,0.521s0.702-0.199,0.877-0.521  l1.215-2.222c1.121-2.048,2.795-3.724,4.844-4.844l2.221-1.215c0.321-0.175,0.52-0.512,0.52-0.877S89.655,19.293,89.334,19.118z   M86.153,20.333c-2.384,1.304-4.334,3.253-5.639,5.639l-0.338,0.617l-0.337-0.617c-1.305-2.386-3.254-4.335-5.639-5.639  l-0.617-0.338l0.617-0.338c2.384-1.304,4.334-3.253,5.639-5.639l0.337-0.617l0.338,0.617c1.305,2.386,3.254,4.335,5.639,5.639  l0.617,0.338L86.153,20.333z"/></svg>