<svg xmlns="http://www.w3.org/2000/svg" xmlns:xlink="http://www.w3.org/1999/xlink" version="1.1" x="0px" y="0px" viewBox="0 0 100 125" enable-background="new 0 0 100 100" xml:space="preserve"><path d="M57.4,74.8c0.6,0,1-0.4,1-1V38.3c0-0.6-0.4-1-1-1s-1,0.4-1,1v35.6C56.4,74.4,56.9,74.8,57.4,74.8z"/><circle cx="57.4" cy="78.8" r="2.2"/><path d="M63.3,12H36.8c-1.1,0-2,0.9-2,2v16c0,0.4,0.1,0.7,0.3,1c-0.2,0.5-0.3,1.1-0.3,1.9v49.4c0,5.7,6.2,5.7,8.5,5.7h13.5  c2.3,0,8.5,0,8.5-5.7V32.9c0-0.7-0.1-1.3-0.3-1.9c0.2-0.3,0.3-0.7,0.3-1V14C65.3,12.9,64.4,12,63.3,12z M38.8,16h22.5v12h-1.9  c-0.3,0-0.6,0-0.9,0l-15.3,0l-1.8,0c-0.2,0-0.5,0-0.9,0h-1.9V16z M61.3,82.3c0,0.7,0,1.7-4.5,1.7H43.3c-4.5,0-4.5-1-4.5-1.7V32.9  c0-0.5,0-0.8,2-0.9h18.6c1.9,0.1,2,0.4,2,0.9V82.3z"/></svg>