<svg xmlns="http://www.w3.org/2000/svg" xmlns:xlink="http://www.w3.org/1999/xlink" version="1.1" x="0px" y="0px" viewBox="0 0 100 125" enable-background="new 0 0 100 100" xml:space="preserve"><path fill="#444" d="M59,45v37.8c0,0.6,0.4,1,1,1s1-0.4,1-1V45c0-0.6-0.4-1-1-1S59,44.4,59,45z"/><circle fill="#444" cx="59.5" cy="87.7" r="2.2"/><path fill="#444" d="M61,34.5c-1.8-1.3-2.5-2.2-2.6-3.5c0.9-0.2,1.6-1,1.6-2V19c0-1.1-0.9-2-2-2h-2v-7h2.9C60,10,61,9.4,61,8.3  v-2C61,5.1,60,4,58.9,4H44.5c-9.1,0-11.5,6.1-11.6,6.4c-0.3,0.9,0,1.9,0.8,2.5c0.3,0.2,0.7,0.3,1.1,0.3c0.5,0,0.9-0.2,1.3-0.6  c0.1-0.1,2-2.3,8-2.3V17h-2c-1.1,0-2,0.9-2,2v10c0,1,0.7,1.8,1.6,2c-0.1,1.4-0.9,2.3-2.7,3.5c-2.7,1.9-6,5.5-6,11.7v40.5  c0,3.6,0.2,6.2,1.9,7.7c1.5,1.4,3.8,1.5,7.4,1.5h15.4c0.1,0,0.3,0,0.4,0c3.4,0,5.5-0.2,7-1.5c1.7-1.5,1.9-4.1,1.9-7.7V46.3  C67,40,63.7,36.4,61,34.5z M48,21h1v6h-1V21z M51,21h1v6h-1V21z M54,21h2v6h-2V21z M48,10h4v7h-4V10z M44,21h2v6h-2V21z M63,86.8  c0,1.2-0.1,4.3-0.6,4.8C62,91.9,59.8,92,57.7,92H42.3c-2.1,0-4.4-0.1-4.8-0.5c-0.5-0.4-0.6-3.6-0.6-4.8V46.3c0-3.6,1.5-6.5,4.3-8.5  c2.1-1.5,4.1-3.4,4.3-6.8h8.8c0.2,3.4,2.2,5.3,4.3,6.8c2.8,2,4.3,4.8,4.3,8.5V86.8z"/></svg>