<svg xmlns="http://www.w3.org/2000/svg" xmlns:xlink="http://www.w3.org/1999/xlink" version="1.1" x="0px" y="0px" viewBox="0 0 100 125" enable-background="new 0 0 100 100" xml:space="preserve"><g><path fill="#444" d="M58.1,52.2v28.8c0,0.6,0.4,1,1,1s1-0.4,1-1V52.2c0-0.6-0.4-1-1-1S58.1,51.6,58.1,52.2z"/><circle fill="#444" cx="59.1" cy="85.9" r="2.2"/><path fill="#444" d="M60.9,41.7c-2-1.4-2.6-2.4-2.6-4.1V37c0.9-0.2,1.7-1,1.7-2V25c0-1.1-0.9-2-2-2h-1v-8.1c0-3.8-3.1-6.9-6.8-6.9h-0.3   c-3.8,0-6.8,3.1-6.8,6.9V23h-1c-1.1,0-2,0.9-2,2v10c0,1,0.7,1.8,1.7,2v0.6c0,1.7-0.6,2.7-2.6,4.1c-2.7,1.9-5.9,5.5-5.9,11.7v31.5   c0,8.2,1.6,9,8.7,9h16.3c3.2,0,5.5,0,7-1.5c1.5-1.5,1.7-4,1.7-7.5V53.4C66.8,47.2,63.6,43.6,60.9,41.7z M56,27v6h-2v-6h1H56z    M52,33h-1v-6h1V33z M49,33h-1v-6h1V33z M46,33h-2v-6h1h1V33z M47,14.9c0-1.6,1.3-2.9,2.8-2.9h0.3c1.5,0,2.8,1.3,2.8,2.9V23h-6   V14.9z M62.8,84.9c0,1.1,0,4.2-0.5,4.6c-0.4,0.4-2.7,0.4-4.2,0.4H42.8h-1c-1.5,0-3.9,0-4.2-0.4c-0.5-0.5-0.5-3.5-0.5-4.6V53.4   c0-3.6,1.4-6.5,4.2-8.5c2.2-1.6,4.2-3.5,4.3-7.1h8.7c0.1,3.6,2.1,5.5,4.3,7.1c2.8,2,4.2,4.8,4.2,8.5V84.9z"/></g></svg>