<svg xmlns="http://www.w3.org/2000/svg" xmlns:xlink="http://www.w3.org/1999/xlink" version="1.1" x="0px" y="0px" viewBox="0 0 100 125" enable-background="new 0 0 100 100" xml:space="preserve"><path fill="#444" d="M64.3,12H35.8c-0.6,0-1.2,0.3-1.6,0.8s-0.5,1.1-0.4,1.7c0,0.1,2.3,9.8,2.7,12.7c1.3,8.7,2.5,30.8,2.9,39.9  c0.1,1.9,1.2,3.5,2.8,4.3v15.4c0,1.1,0.9,2,2,2h11.5c1.1,0,2-0.9,2-2V71.4c1.6-0.8,2.7-2.4,2.8-4.3c0.3-7.1,1.6-31,2.9-39.9  c0.4-2.9,2.7-12.6,2.7-12.7c0.1-0.6,0-1.2-0.4-1.7S64.9,12,64.3,12z M61.7,16c-0.1,0.5-0.2,1.1-0.4,1.7H38.6  c-0.1-0.6-0.3-1.2-0.4-1.7H61.7z M53.8,84.8h-7.5V72h7.5V84.8z M59.5,26.6c-1.3,8.9-2.5,31.1-3,40.3c0,0.6-0.6,1.1-1.2,1.1H44.6  c-0.6,0-1.2-0.5-1.2-1.1c-0.4-9.2-1.6-31.4-3-40.3c-0.2-1.4-0.8-4.3-1.4-6.9h21.8C60.3,22.3,59.7,25.1,59.5,26.6z"/><path fill="#444" d="M56.4,32.2c-0.5,0-1,0.4-1.1,0.9L54,58.9c0,0.6,0.4,1,0.9,1.1c0,0,0,0,0.1,0c0.5,0,1-0.4,1-0.9l1.3-25.8  C57.4,32.7,57,32.2,56.4,32.2z"/><circle fill="#444" cx="54.1" cy="63.8" r="2.2"/></svg>