<svg xmlns="http://www.w3.org/2000/svg" xmlns:xlink="http://www.w3.org/1999/xlink" version="1.1" x="0px" y="0px" viewBox="0 0 100 125" enable-background="new 0 0 100 100" xml:space="preserve"><path fill="#444" d="M71.4,57.3c0.6,0,1-0.4,1-1v-6.6c0-0.6-0.4-1-1-1s-1,0.4-1,1v6.6C70.4,56.9,70.9,57.3,71.4,57.3z"/><circle fill="#444" cx="71.4" cy="61.3" r="2.2"/><path fill="#444" d="M78.3,29.5H21.8c-1.1,0-2,0.9-2,2v13c0,0.4,0.1,0.7,0.3,1c-0.2,0.5-0.3,1.1-0.3,1.9v16.4c0,5.7,6.2,5.7,8.5,5.7h43.5  c2.3,0,8.5,0,8.5-5.7V47.4c0-0.7-0.1-1.3-0.3-1.9c0.2-0.3,0.3-0.7,0.3-1v-13C80.3,30.4,79.4,29.5,78.3,29.5z M23.8,33.5h52.5v9h-1.9  c-0.3,0-0.6,0-0.9,0l-45.3,0l-1.8,0c-0.2,0-0.5,0-0.9,0h-1.9V33.5z M76.3,63.8c0,0.7,0,1.7-4.5,1.7H28.3c-4.5,0-4.5-1-4.5-1.7V47.4  c0-0.5,0-0.8,2-0.9h48.6c1.9,0.1,2,0.4,2,0.9V63.8z"/></svg>