<svg xmlns="http://www.w3.org/2000/svg" xmlns:xlink="http://www.w3.org/1999/xlink" version="1.1" x="0px" y="0px" viewBox="0 0 100 125" enable-background="new 0 0 100 100" xml:space="preserve"><path fill="#444" d="M61.8,26.3l-4-5.4c0.1-0.3,0.2-0.6,0.2-0.9V6c0-1.1-0.9-2-2-2H44c-1.1,0-2,0.9-2,2v14c0,0.4,0.1,0.8,0.3,1.1  l-4,5.2c-2,2.7-3.3,5.1-3.3,8.8v51.2c0,8.6,3.2,9.8,10.9,9.8h8.5c7.9,0,10.6-1.3,10.6-9.8V34.9C65,31.3,63.8,28.9,61.8,26.3z M46,8  h8v10h-8V8z M61,86.3c0,5.8-0.6,5.8-6.6,5.8h-8.5c-6.2,0-6.9,0.1-6.9-5.8V35c0-2.6,0.9-4.3,2.5-6.4l5.2-6.7h7l5,6.7  c1.6,2.1,2.4,3.7,2.4,6.3V86.3z"/><path fill="#444" d="M57,32.5v49.8c0,0.6,0.4,1,1,1s1-0.4,1-1V32.5c0-0.6-0.4-1-1-1S57,31.9,57,32.5z"/><circle fill="#444" cx="58.3" cy="87.2" r="2.2"/></svg>