<svg xmlns="http://www.w3.org/2000/svg" xmlns:xlink="http://www.w3.org/1999/xlink" version="1.1" x="0px" y="0px" viewBox="0 0 100 125" enable-background="new 0 0 100 100" xml:space="preserve"><path d="M60,42.2V36c0-1.1-0.9-2-2-2v-8c0-1.1-0.9-2-2-2h-1.5v-6.8H57c1.1,0,2-0.9,2-2v-2c0-1.1-0.9-2-2-2H42.5  c-9.1,0-11.5,6-11.6,6.3c-0.3,0.9,0,1.9,0.8,2.4c0.3,0.2,0.7,0.3,1.1,0.3c0.5,0,1.1-0.2,1.5-0.6c0.1-0.1,2.3-2.3,8.3-2.3h1V24H42  c-1.1,0-2,0.9-2,2v8c-1.1,0-2,0.9-2,2v6.7c-8.5,4.3-14,13-14,22.7v1.3c0,9.1,5,17.6,12.9,22.1c0.3,0.2,0.6,0.3,1,0.3h23.2  c0.3,0,0.7-0.1,1-0.3c8-4.5,12.9-13,12.9-22.1v-1.3C75,55.4,69,46.3,60,42.2z M50.5,17.3v6.3h-3.1v-6.3H50.5z M44,28h10v6H44V28z   M71,66.6c0,7.5-4,14.5-10.4,18.4H38.4C32,81.2,28,74.2,28,66.6v-1.3c0-8.5,5-16.2,12.8-19.6c0.7-0.3,1.2-1,1.2-1.8v-6h14v5.5  c0,0.8,0.5,1.6,1.3,1.9C65.5,48.6,71,56.6,71,65.4V66.6z"/><path d="M57.4,47.7c-0.5-0.2-1.1,0.1-1.3,0.6c-0.2,0.5,0.1,1.1,0.6,1.3c6.1,2.3,10.2,8.3,10.2,14.8c0,0.6,0.4,1,1,1s1-0.4,1-1  C68.8,57,64.2,50.3,57.4,47.7z"/><circle cx="66.8" cy="69.6" r="2.2"/></svg>