<svg xmlns="http://www.w3.org/2000/svg" data-name="Layer 1" viewBox="0 0 105 131.25" x="0px" y="0px"><title>Artboard 4</title><path d="M42.36,38.76A3,3,0,0,0,48,36.35a9.68,9.68,0,0,0-17.79,0,3,3,0,1,0,5.6,2.41,3.59,3.59,0,0,1,6.59,0Z"/><path d="M65.93,30.49A9.68,9.68,0,0,0,57,36.35a3,3,0,0,0,5.6,2.41,3.59,3.59,0,0,1,6.59,0,3,3,0,1,0,5.6-2.41A9.68,9.68,0,0,0,65.93,30.49Z"/><path d="M96.19,48.49V21.91a9.66,9.66,0,0,0-4.56-8.26,74.24,74.24,0,0,0-78.26,0,9.66,9.66,0,0,0-4.56,8.26v36.9A43.74,43.74,0,0,0,52.5,102.5h0A43.74,43.74,0,0,0,96.19,58.81V48.5h0ZM85.08,77.55,82.55,75a3,3,0,1,0-4.31,4.31l3.31,3.31a37.56,37.56,0,0,1-26,13.64V92.54a3,3,0,0,0-6.1,0v3.74A37.56,37.56,0,0,1,23.51,82.71l3.39-3.39A3,3,0,1,0,22.58,75L20,77.63a37.36,37.36,0,0,1-5.06-18.82V51.54h3.86a3,3,0,0,0,0-6.1H14.91V21.91a3.64,3.64,0,0,1,1.69-3.08,68.14,68.14,0,0,1,71.82,0,3.64,3.64,0,0,1,1.69,3.08V45.44H86.23a3,3,0,0,0,0,6.1H90.1v7.27A37.36,37.36,0,0,1,85.08,77.55Z"/><path d="M57.58,55.89H47.42a8.13,8.13,0,0,0,0,16.26H57.58a8.13,8.13,0,0,0,0-16.26Zm0,10.16H47.42a2,2,0,0,1,0-4.06H57.58a2,2,0,0,1,0,4.06Z"/></svg>